<svg xmlns="http://www.w3.org/2000/svg" width="48" height="48" viewBox="0 0 48 48"><defs><style>.a{fill:#fff;stroke:rgba(0,0,0,0.1);}.b{fill:red;opacity:0;}.c{fill:#361d1e;}.d{fill:#ffe200;}.e{stroke:none;}.f{fill:none;}</style></defs><g transform="translate(-240 -468)"><g class="a" transform="translate(240 468)"><circle class="e" cx="24" cy="24" r="24"/><circle class="f" cx="24" cy="24" r="23.5"/></g><g transform="translate(0 -0.814)"><rect class="b" width="24" height="24" transform="translate(252 480.814)"/><g transform="translate(-42.731 462.989)"><path class="c" d="M300.606,35.544a8.215,8.215,0,0,1-2.4,3.943.207.207,0,0,0-.083.2.182.182,0,0,0,.208.138,22.634,22.634,0,0,0,6.418-2.93,13.741,13.741,0,0,0,1.982.143c6.012,0,10.886-3.853,10.886-8.605s-4.874-8.6-10.886-8.6-10.887,3.853-10.887,8.6C295.845,31.387,297.732,34,300.606,35.544Z" transform="translate(0 0)"/><path class="d" d="M310.419,52.91H309.36a.52.52,0,0,1-.547-.555.539.539,0,0,1,.547-.555h3.325a.539.539,0,0,1,.547.555.52.52,0,0,1-.547.555h-1.059v3.824a.6.6,0,1,1-1.207,0Z" transform="translate(-10.548 -26.007)"/><path class="d" d="M329.419,56.044l-.225.679a.559.559,0,0,1-.58.426.577.577,0,0,1-.6-.563.681.681,0,0,1,.057-.266l1.553-4.114a.946.946,0,0,1,.861-.669.911.911,0,0,1,.862.669l1.507,4.114a.943.943,0,0,1,.065.3.536.536,0,0,1-.556.531.564.564,0,0,1-.588-.418l-.219-.687Zm1.078-3.25h-.016l-.717,2.165h1.45Z" transform="translate(-26.17 -25.795)"/><path class="d" d="M356.563,52.166a.6.6,0,1,1,1.208,0v3.873h1.418a.543.543,0,0,1,.58.58.559.559,0,0,1-.58.531h-2a.6.6,0,0,1-.628-.66Z" transform="translate(-49.388 -25.795)"/><path class="d" d="M379.358,56.026a.88.88,0,0,1,.273.644.571.571,0,0,1-.692.475c-.234-.024-.362-.177-.564-.451l-1.361-1.856-.31.317V56.57a.578.578,0,0,1-.6.579.564.564,0,0,1-.6-.579V52.134a.581.581,0,0,1,.6-.6.569.569,0,0,1,.6.6v1.549l1.771-1.846a.664.664,0,0,1,.475-.217.559.559,0,0,1,.58.563c0,.21-.146.326-.411.628l-1.252,1.263Z" transform="translate(-64.789 -25.795)"/></g></g></g></svg>